<svg xmlns="http://www.w3.org/2000/svg" width="52.999" height="51.674" viewBox="0 0 52.999 51.674">
  <path id="Icon_simple-adobeillustrator" data-name="Icon simple-adobeillustrator" d="M0,.45V52.124H53V.45ZM2.208,2.658H50.79V49.915H2.208ZM18.384,29.71l-1.749,6.62c-.038.183-.11.225-.327.225H13.066c-.221,0-.254-.073-.221-.327l6.272-21.961a6.812,6.812,0,0,0,.216-1.839c0-.146.073-.221.183-.221h4.629c.146,0,.221.04.256.221l7.033,23.836c.038.183,0,.291-.183.291H27.608c-.183,0-.291-.044-.327-.19l-1.822-6.658H18.377Zm6.157-3.588c-.618-2.442-2.076-7.791-2.623-10.379H21.88c-.473,2.584-1.639,6.956-2.551,10.379Zm9.937-12.274a2.259,2.259,0,1,1,4.518,0,2.116,2.116,0,0,1-2.3,2.259,2.076,2.076,0,0,1-2.23-2.259Zm.247,5.022c0-.177.073-.243.256-.243h3.467c.194,0,.265.073.265.256V36.317c0,.183-.035.256-.254.256H35.037c-.221,0-.294-.11-.294-.287V18.867Z" transform="translate(0 -0.45)" fill="#303537"/>
</svg>
