<svg id="EGL_Media_Footer" data-name="EGL Media Footer" xmlns="http://www.w3.org/2000/svg" width="139.826" height="75.308" viewBox="0 0 139.826 75.308">
  <g id="Layer_2" data-name="Layer 2">
    <path id="Path_9" data-name="Path 9" d="M50,85.471a33.549,33.549,0,0,0,0,5.7c.219,2.3,3.2,2.26,3.2,2.26H87.052c2.24,0,2.33-2.519,2.33-2.519s.149-4.063,0-5.317a3.067,3.067,0,0,0-1-1.723,2.061,2.061,0,0,0-1.414-.568H52.5A2.549,2.549,0,0,0,50,85.471Z" transform="translate(-49.79 -83.3)" fill="#f7f7f7"/>
    <path id="Path_10" data-name="Path 10" d="M51.991,104H83.507s2.27-.129,2.38,2.708,0,5.148,0,5.148-.169,2.43-2.39,2.43H52.15c-.647,0-2.36-1.175-2.36-2.44v-5.855S50.148,104,51.991,104Z" transform="translate(-49.79 -83.387)" fill="#f7f7f7"/>
    <path id="Path_11" data-name="Path 11" d="M51.8,125.06H86.773s2.231.209,2.231,2.1v5.885s-.319,1.992-1.9,1.992H51.971s-2.121-.289-2.141-2.241.07-5.756.07-5.756S50.139,125,51.8,125.06Z" transform="translate(-49.79 -83.477)" fill="#f7f7f7"/>
    <path id="Path_12" data-name="Path 12" d="M118.609,85.411v5.975s-.368,1.842-1.842,2.081c0,0-11.451,1.792-11.87,15.664,0,0-.468,13.074,11.541,15.763a2.987,2.987,0,0,1,2.171,2.928v5.327a2.479,2.479,0,0,1-3.206,2.091S94.62,132.133,94.73,109.13c0,0-.717-21.509,21.021-25.8h.159C116.358,83.29,118.609,83.41,118.609,85.411Z" transform="translate(-49.98 -83.3)" fill="#f7f7f7"/>
    <path id="Path_13" data-name="Path 13" d="M126.316,83.42S123,82.493,123,85.989s.08,5.507.08,5.507.159,1.713,2.987,2.25a15.584,15.584,0,0,1,7.966,5.805s1.255,1.593,2.689,1.583h6.194a1.573,1.573,0,0,0,1.713-1.6,5.975,5.975,0,0,0-.588-2.987S138.813,85.371,126.316,83.42Z" transform="translate(-50.099 -83.3)" fill="#f7f7f7"/>
    <path id="Path_14" data-name="Path 14" d="M146.99,107.381c0-1.295-1.424-1.992-1.992-2.151a2.738,2.738,0,0,0-.578-.06H121.279s-2.45.269-2.519,2.35-.05,5.586-.05,5.586.329,1.992,2.987,1.992h14.1s-1.374,7.777-11.183,10.207c0,0-1.593.209-1.643,2.738s0,5.487,0,5.487a2.609,2.609,0,0,0,2.728,1.832,24.954,24.954,0,0,0,19.1-14.429S146.99,117.189,146.99,107.381Z" transform="translate(-50.081 -83.392)" fill="#f7f7f7"/>
    <path id="Path_15" data-name="Path 15" d="M156.891,83.31H163.2a2.619,2.619,0,0,1,1.753,2.679V132.68s-.289,2.051-2.061,2.051h-5.975s-2.151-.129-2.151-2.141V85.521S155,83.31,156.891,83.31Z" transform="translate(-50.234 -83.3)" fill="#f7f7f7"/>
    <path id="Path_16" data-name="Path 16" d="M171.65,124.9h16.779s1.693.428,1.693,1.693v6.552s-.349,1.782-1.782,1.782H171.411s-2.121-.129-2.121-2.121v-5.815a2.27,2.27,0,0,1,2.36-2.091Z" transform="translate(-50.295 -83.476)" fill="#f7f7f7"/>
  </g>
  <text id="Media" transform="translate(0 72.308)" fill="#f7f7f7" font-size="17" font-family="NHaasGroteskDSPro-35XLt, Neue Haas Grotesk Display Pro" letter-spacing="0.025em"><tspan x="0" y="0">Media</tspan></text>
</svg>
