<svg xmlns="http://www.w3.org/2000/svg" width="51.239" height="72.131" viewBox="0 0 51.239 72.131">
  <path id="Icon_zocial-html5" data-name="Icon zocial-html5" d="M5.774,14.436H57.013L52.175,66.481,31.356,72.419,10.538,66.481Zm4.765-4.4V.288h3.3V3.513h2.932V.288h3.225v9.749H16.769V6.812H13.837v3.225ZM15.3,25.065l1.759,19.5.073-.147H39.127L38.394,52.7l-7.037,1.979-7.11-2.052-.44-4.985H17.355l.88,9.972,13.121,3.738L44.48,57.614l1.833-19.572H22.927l-.586-6.524H46.9l.589-6.451H15.3ZM21.46,3.587V.288H30.4v3.3H27.545v6.451H24.322V3.587ZM31.8,10.037V.288h3.445L37.221,3.66,39.273.288h3.445v9.749H39.564V5.053L37.221,8.718V8.645L35.019,5.2v4.838Zm12.608,0V.288H47.63V6.739h4.543v3.3H44.4Z" transform="translate(-5.773 -0.288)" fill="#303537"/>
</svg>
