<svg xmlns="http://www.w3.org/2000/svg" width="51.463" height="53.064" viewBox="0 0 51.463 53.064">
  <path id="Icon_awesome-js-square" data-name="Icon awesome-js-square" d="M45.949,2.25H5.514A5.6,5.6,0,0,0,0,7.935V49.629a5.6,5.6,0,0,0,5.514,5.685H45.949a5.6,5.6,0,0,0,5.514-5.685V7.935A5.6,5.6,0,0,0,45.949,2.25ZM28.006,43.635c0,5.164-2.941,7.521-7.225,7.521a7.5,7.5,0,0,1-7.26-4.56l3.94-2.452c.758,1.386,1.447,2.558,3.113,2.558,1.585,0,2.6-.64,2.6-3.139V26.615h4.836Zm11.441,7.521c-4.492,0-7.4-2.2-8.811-5.093l3.94-2.345c1.034,1.741,2.389,3.032,4.767,3.032,2,0,3.285-1.03,3.285-2.464,0-1.706-1.31-2.31-3.527-3.317L37.9,40.437c-3.492-1.528-5.8-3.459-5.8-7.521,0-3.743,2.768-6.586,7.076-6.586a7.084,7.084,0,0,1,6.869,3.992l-3.768,2.487c-.827-1.528-1.723-2.132-3.113-2.132a2.126,2.126,0,0,0-2.309,2.132c0,1.492.9,2.1,2.975,3.032l1.206.533c4.112,1.812,6.421,3.672,6.421,7.841C47.454,48.693,44.03,51.157,39.447,51.157Z" transform="translate(0 -2.25)" fill="#303537"/>
</svg>
