<svg xmlns="http://www.w3.org/2000/svg" width="30.198" height="67.35" viewBox="0 0 30.198 67.35">
  <path id="Icon_simple-mongodb" data-name="Icon simple-mongodb" d="M39.567,26.71c-3.544-15.6-11.9-20.73-12.8-22.691A25.216,25.216,0,0,1,24.708,0c-.006.053-.011.087-.014.138V.174h0c-.006.042-.008.07-.011.109V.326h-.006c0,.028-.006.051-.006.073V.471H24.66a.533.533,0,0,1-.008.07V.6h-.006a.2.2,0,0,1-.006.059V.716h-.006c0,.028,0,.062-.006.09V.811c-.008.048-.017.1-.025.14V.974H24.6a.148.148,0,0,0-.008.034v.048h-.008v.062h-.014v.051h-.014v.059h-.011V1.28h-.011v.048h-.017v.039H24.5v.051h-.011v.039h-.014v.036h-.008v.042h-.011a.017.017,0,0,0,0,.011v.028h-.008a.036.036,0,0,0,0,.017v.017h-.006a.124.124,0,0,0-.006.028c-.008.02-.02.039-.028.059V1.7a.085.085,0,0,0-.014.02v.022h-.011v.022h-.014v.022h-.008v.028H24.34v.039h-.011v.011h-.011v.022h-.011v.031H24.3v.022h-.017v.031h-.011V2h-.014v.022h-.008v.028h-.014v.022h-.011v.017h-.011v.022h-.017v.025H24.18V2.15h-.014v.022h-.011V2.2h-.014v.011h-.008v.022h-.017v.011H24.1v.028h-.011v.011h-.011V2.31h-.014v.017h-.008l-.006.011v.011h-.006c0,.006-.006.006-.006.011v0h0a.045.045,0,0,1-.011.02v.008h0a.527.527,0,0,0-.034.051v0a.126.126,0,0,0-.025.028v.006h0s-.008.006-.008.008v.008H23.95l-.008.008v0h0s-.006.006-.008.011v.011h-.008l-.006.006V2.54h-.006c0,.006-.006.006-.006.008v.008h-.011s0,.006-.006.008v.017H23.88v.011h-.011V2.61h-.011v.022h-.014V2.61h-.014v.011h-.011v.017H23.8V2.66H23.79v.011h-.011v.017h-.011V2.7h-.011v.022h-.017v.011h-.011V2.75h-.014v.011H23.7v.014h-.014V2.8h-.006v.011h-.017v.014h-.011v.006h-.011v.011H23.63v.028h-.011v.011H23.6V2.9h-.011v.017h-.014v.011h-.014v.011h-.011v.011h-.011v.028h-.011v.014h-.017V3H23.5v.011H23.49v.017h-.011v.011h-.014v.02h-.011V3.07h-.017v.017h-.006V3.1h-.011v.011h-.014v.011h-.011v.017H23.38v.011h-.008a.009.009,0,0,0,0,.006V3.16h-.006l-.011.011a.052.052,0,0,1-.011.008V3.2H23.33V3.21h-.011v.011h-.011v.011H23.3l-.008.008V3.25h-.006l-.006.006v.008h-.006a.281.281,0,0,1-.039.045l-.034.028a1.027,1.027,0,0,0-.109.09.591.591,0,0,0-.062.048v0h0l-.138.109v0c-.067.056-.132.109-.208.174v0h-.006c-.16.132-.328.281-.522.446v0h0c-.474.415-1.038.949-1.67,1.594l-.042.042-.011.011C16.611,9.805,10.6,18.033,9.963,31.329a29.09,29.09,0,0,0,.017,3.21v.025a30.575,30.575,0,0,0,4.007,13.347v0a35.15,35.15,0,0,0,2.6,3.943v0a35.911,35.911,0,0,0,7.055,7.089c1.238,2.871,1.123,7.8,1.123,7.8l1.807.6a33.657,33.657,0,0,1,.149-7.077,4.372,4.372,0,0,1,.979-1.858,23.518,23.518,0,0,0,2.237-1.81c.051-.053.079-.1.123-.152C34.327,52.474,42.3,42.675,39.567,26.71Z" transform="translate(-9.927)" fill="#303537"/>
</svg>
