<svg xmlns="http://www.w3.org/2000/svg" width="51.505" height="58.093" viewBox="0 0 51.505 58.093">
  <path id="Icon_awesome-node-js" data-name="Icon awesome-node-js" d="M25.79,58.378a4.515,4.515,0,0,1-2.236-.6l-7.112-4.208c-1.061-.6-.542-.807-.2-.922a14.011,14.011,0,0,0,3.216-1.464.52.52,0,0,1,.53.046l5.464,3.239a.667.667,0,0,0,.657,0L47.4,42.182a.683.683,0,0,0,.323-.576V17.029a.687.687,0,0,0-.334-.588L26.113,4.164a.667.667,0,0,0-.657,0L4.188,16.452a.673.673,0,0,0-.334.588V41.605a.636.636,0,0,0,.334.565l5.833,3.366c3.17,1.579,5.107-.277,5.107-2.156V19.127a.61.61,0,0,1,.622-.611h2.7a.617.617,0,0,1,.622.611V43.392c0,4.219-2.306,6.64-6.306,6.64-1.233,0-2.2,0-4.9-1.337L2.286,45.478A4.483,4.483,0,0,1,.049,41.594V17.029a4.5,4.5,0,0,1,2.236-3.885L23.554.855a4.668,4.668,0,0,1,4.473,0l21.291,12.3a4.483,4.483,0,0,1,2.236,3.885V41.605a4.511,4.511,0,0,1-2.236,3.885L28.027,57.778A4.483,4.483,0,0,1,25.79,58.378ZM42.978,34.158c0-4.6-3.112-5.821-9.649-6.686-6.617-.876-7.285-1.326-7.285-2.87,0-1.28.565-2.986,5.464-2.986,4.369,0,5.983.945,6.651,3.9a.617.617,0,0,0,.6.484h2.767a.6.6,0,0,0,.45-.2.642.642,0,0,0,.161-.473c-.427-5.084-3.8-7.447-10.628-7.447-6.075,0-9.695,2.559-9.695,6.859,0,4.657,3.608,5.948,9.43,6.525,6.974.68,7.516,1.706,7.516,3.078,0,2.375-1.914,3.389-6.4,3.389-5.637,0-6.87-1.418-7.285-4.219a.61.61,0,0,0-.611-.519H21.709a.608.608,0,0,0-.611.611c0,3.585,1.948,7.862,11.274,7.862,6.732-.012,10.605-2.674,10.605-7.308Z" transform="translate(-0.049 -0.285)" fill="#303537"/>
</svg>
