<svg xmlns="http://www.w3.org/2000/svg" width="52.113" height="50.81" viewBox="0 0 52.113 50.81">
  <path id="Icon_simple-adobephotoshop" data-name="Icon simple-adobephotoshop" d="M0,.45V51.26H52.113V.45ZM2.171,2.621h47.77V49.089H2.171Zm10.423,9.728c0-.145.3-.252.486-.252,1.4-.072,3.448-.109,5.6-.109,6.019,0,8.36,3.3,8.36,7.526,0,5.515-4,7.882-8.907,7.882-.825,0-1.107-.037-1.683-.037V35.7c0,.18-.072.252-.25.252H12.846c-.18,0-.25-.065-.25-.245V12.349Zm3.854,11.534c.5.035.895.035,1.759.035,2.541,0,4.929-.895,4.929-4.334,0-2.758-1.707-4.156-4.608-4.156-.86,0-1.683.035-2.078.072v8.39ZM35.137,21.3c-1.72,0-2.293.86-2.293,1.576,0,.788.391,1.325,2.686,2.508,3.4,1.65,4.477,3.224,4.477,5.552,0,3.474-2.649,5.342-6.232,5.342a9.487,9.487,0,0,1-4.451-.934c-.141-.072-.174-.178-.174-.358V31.8c0-.217.1-.289.248-.182a8,8,0,0,0,4.369,1.29c1.72,0,2.436-.717,2.436-1.685,0-.788-.5-1.47-2.686-2.617-3.083-1.477-4.373-2.975-4.373-5.487,0-2.795,2.184-5.124,5.982-5.124a10.121,10.121,0,0,1,3.9.608.473.473,0,0,1,.217.43v2.975c0,.18-.109.289-.326.217a7.776,7.776,0,0,0-3.785-.934Z" transform="translate(0 -0.45)" fill="#303537"/>
</svg>
