<svg id="Icon_ionic-logo-python" data-name="Icon ionic-logo-python" xmlns="http://www.w3.org/2000/svg" width="52.2" height="52.2" viewBox="0 0 52.2 52.2">
  <path id="Path_354" data-name="Path 354" d="M22.1,29.656a8.879,8.879,0,0,1,1.575-.142l-.424,0H37.363a6.542,6.542,0,0,0,1.755-.238,6.115,6.115,0,0,0,4.533-5.935V11.482c0-3.376-2.875-5.911-6.292-6.471a51.445,51.445,0,0,0-7.489-.51,36.308,36.308,0,0,0-6.019.51c-5.329.928-6.3,2.878-6.3,6.471v3.893H30.6V17.55H13.312C8.468,17.55,4.538,23.337,4.5,30.5c0,.034,0,.069,0,.1a18.933,18.933,0,0,0,.365,3.725c1.082,5.392,4.454,9.325,8.447,9.325h2.064V37.406A8.037,8.037,0,0,1,22.1,29.656Zm1.386-16.592A2.374,2.374,0,1,1,25.85,10.7,2.365,2.365,0,0,1,23.485,13.064Z" transform="translate(-4.5 -4.5)" fill="#303537"/>
  <path id="Path_355" data-name="Path 355" d="M49.85,19.752c-1.247-4.965-4.475-8.5-8.261-8.5H39.525v5.529c0,4.61-3.03,7.949-6.727,8.521a7.332,7.332,0,0,1-1.128.088H17.551a6.989,6.989,0,0,0-1.774.227,5.836,5.836,0,0,0-4.527,5.65V43.122c0,3.376,3.4,5.359,6.726,6.328a23.055,23.055,0,0,0,13.1,0c3.168-.905,6.274-2.735,6.274-6.328v-3.6H24.3V37.35H41.589c3.431,0,6.4-2.9,7.859-7.143A18.256,18.256,0,0,0,50.4,24.3,18.713,18.713,0,0,0,49.85,19.752ZM31.351,41.54a2.374,2.374,0,1,1-2.365,2.365A2.364,2.364,0,0,1,31.351,41.54Z" transform="translate(1.8 1.8)" fill="#303537"/>
</svg>
