<svg xmlns="http://www.w3.org/2000/svg" width="53.476" height="46.794" viewBox="0 0 53.476 46.794">
  <path id="Icon_awesome-react" data-name="Icon awesome-react" d="M43.679,17.415q-.846-.282-1.692-.533c.094-.386.178-.773.261-1.159C43.533,9.5,42.687,4.5,39.835,2.845c-2.747-1.577-7.228.063-11.76,4.011-.449.386-.888.794-1.306,1.2-.282-.272-.574-.543-.867-.8-4.752-4.22-9.515-6-12.366-4.334-2.736,1.588-3.551,6.3-2.4,12.189.115.585.24,1.159.386,1.744-.668.188-1.326.4-1.943.616C4,19.4,0,22.449,0,25.6c0,3.259,4.261,6.528,10.058,8.512.47.157.94.313,1.42.449-.157.627-.292,1.243-.418,1.88-1.1,5.8-.24,10.392,2.5,11.969,2.82,1.629,7.562-.042,12.178-4.084.366-.324.731-.658,1.1-1.013.46.449.94.877,1.42,1.3,4.47,3.844,8.888,5.4,11.614,3.823,2.82-1.629,3.739-6.57,2.548-12.586q-.141-.689-.313-1.41c.334-.094.658-.2.982-.3,6.026-1.995,10.392-5.222,10.392-8.533,0-3.165-4.115-6.235-9.8-8.188ZM29.547,8.548c3.885-3.384,7.51-4.71,9.16-3.76,1.765,1.013,2.444,5.107,1.337,10.486-.073.355-.146.7-.24,1.044a53.468,53.468,0,0,0-7.029-1.107,52.77,52.77,0,0,0-4.449-5.546c.407-.386.8-.752,1.222-1.118ZM17.463,31.024c.533.909,1.076,1.817,1.65,2.705a47.294,47.294,0,0,1-4.846-.783,48.79,48.79,0,0,1,1.7-4.648C16.45,29.217,16.941,30.126,17.463,31.024ZM14.3,18.459c1.5-.334,3.1-.606,4.763-.815-.554.867-1.1,1.755-1.608,2.653s-1.013,1.8-1.483,2.716c-.658-1.556-1.212-3.081-1.671-4.554Zm2.862,7.2c.689-1.441,1.441-2.851,2.235-4.24s1.65-2.736,2.548-4.063c1.567-.115,3.165-.178,4.794-.178s3.238.063,4.794.178q1.332,1.974,2.538,4.042t2.266,4.22q-1.05,2.162-2.256,4.261c-.794,1.389-1.64,2.736-2.528,4.073-1.556.115-3.175.167-4.815.167s-3.227-.052-4.763-.146q-1.363-1.99-2.569-4.073C18.6,28.507,17.86,27.1,17.16,25.656ZM36.023,31c.533-.919,1.034-1.849,1.525-2.789a48.484,48.484,0,0,1,1.765,4.627,45.875,45.875,0,0,1-4.909.836C34.968,32.8,35.5,31.9,36.023,31Zm1.5-7.99c-.491-.919-.992-1.838-1.514-2.736s-1.044-1.765-1.6-2.632a48.065,48.065,0,0,1,4.794.836,46.223,46.223,0,0,1-1.682,4.533ZM26.759,11.263A45.864,45.864,0,0,1,29.85,15c-2.068-.094-4.146-.094-6.214,0C24.659,13.655,25.714,12.4,26.759,11.263Zm-12.116-6.4C16.4,3.837,20.294,5.3,24.4,8.934c.261.23.522.48.794.731a53.064,53.064,0,0,0-4.481,5.546A55.056,55.056,0,0,0,13.693,16.3c-.136-.533-.251-1.076-.366-1.619-.982-5.055-.334-8.867,1.316-9.818ZM12.084,32.392c-.439-.125-.867-.261-1.3-.407a21.3,21.3,0,0,1-6.58-3.259A4.687,4.687,0,0,1,2.246,25.6c0-1.911,3.3-4.355,8.063-6.016.6-.209,1.2-.4,1.807-.574a55.538,55.538,0,0,0,2.559,6.643A57.092,57.092,0,0,0,12.084,32.392ZM24.263,42.628a19.117,19.117,0,0,1-5.891,3.687,4.623,4.623,0,0,1-3.687.136c-1.661-.961-2.35-4.648-1.41-9.609.115-.585.24-1.17.386-1.744a52.251,52.251,0,0,0,7.092,1.024A55.12,55.12,0,0,0,25.265,41.7C24.931,42.022,24.6,42.336,24.263,42.628Zm2.559-2.538c-1.065-1.149-2.131-2.423-3.165-3.791,1,.042,2.037.063,3.081.063,1.076,0,2.131-.021,3.175-.073a45.043,45.043,0,0,1-3.092,3.8Zm13.651,3.133a4.642,4.642,0,0,1-1.723,3.269c-1.661.961-5.2-.292-9.024-3.572-.439-.376-.877-.783-1.326-1.2a51.669,51.669,0,0,0,4.408-5.6,51.488,51.488,0,0,0,7.123-1.1c.1.428.2.856.282,1.274A19.04,19.04,0,0,1,40.472,43.223ZM42.373,32c-.292.094-.585.188-.888.272A53.058,53.058,0,0,0,38.822,25.6a52.792,52.792,0,0,0,2.559-6.57c.543.157,1.065.324,1.567.491,4.867,1.671,8.282,4.157,8.282,6.058,0,2.047-3.645,4.69-8.857,6.413ZM26.738,30.429a4.784,4.784,0,1,0-4.784-4.784A4.783,4.783,0,0,0,26.738,30.429Z" transform="translate(0 -2.251)" fill="#303537"/>
</svg>
