<svg xmlns="http://www.w3.org/2000/svg" width="52.113" height="39.089" viewBox="0 0 52.113 39.089">
  <path id="Icon_awesome-sass" data-name="Icon awesome-sass" d="M24.578,30.677C24.554,30.726,24.529,30.765,24.578,30.677Zm20.286-7.084a10.68,10.68,0,0,0-4.723,1.1,10.029,10.029,0,0,1-1.059-2.451,6.542,6.542,0,0,1-.09-2.06,17.35,17.35,0,0,1,.619-2.215c-.008-.09-.114-.537-1.164-.546s-1.954.2-2.059.48a10,10,0,0,0-.432,1.555,37.731,37.731,0,0,1-3.183,6.132,6.322,6.322,0,0,1-.725-1.791,6.542,6.542,0,0,1-.09-2.06,17.348,17.348,0,0,1,.619-2.215c-.008-.09-.114-.537-1.164-.546s-1.954.2-2.06.48-.22.928-.432,1.555-2.76,6.294-3.426,7.768c-.342.749-.635,1.352-.847,1.759-.033.065-.057.106-.073.138.024-.041.041-.081.041-.065-.179.35-.285.546-.285.546v.008c-.138.261-.293.5-.366.5a3.378,3.378,0,0,1,.024-1.62c.383-1.971,1.287-5.032,1.278-5.138-.008-.057.171-.586-.594-.871a.958.958,0,0,0-1.075.179c-.065,0-.114.163-.114.163s.822-3.453-1.579-3.453c-1.5,0-3.583,1.645-4.607,3.135-.643.35-2.036,1.107-3.5,1.914l-1.686.928c-.041-.041-.073-.081-.114-.122-2.914-3.111-8.3-5.309-8.067-9.486.081-1.523.611-5.521,10.347-10.374,7.98-3.974,14.36-2.883,15.458-.456,1.58,3.461-3.411,9.9-11.7,10.83-3.159.35-4.819-.871-5.234-1.327-.432-.48-.5-.5-.66-.415-.269.147-.1.57,0,.822a4.906,4.906,0,0,0,3,2.353c1.523.5,5.226.774,9.7-.961,5.031-1.938,8.946-7.337,7.8-11.856-1.169-4.593-8.784-6.1-15.985-3.542A36.221,36.221,0,0,0,4.39,9.4C.425,13.113-.209,16.345.051,17.7c.927,4.8,7.538,7.923,10.183,10.235-.13.073-.252.138-.366.2-1.326.66-6.366,3.3-7.627,6.083-1.425,3.159.236,5.423,1.326,5.733a8.13,8.13,0,0,0,8.759-3.55,8.816,8.816,0,0,0,.782-8.1c-.008-.024-.024-.041-.033-.065.342-.2.692-.407,1.042-.611.675-.4,1.335-.765,1.913-1.083a12.648,12.648,0,0,0-.684,3.469A7.208,7.208,0,0,0,16.9,35.033a1.709,1.709,0,0,0,1.253.407c1.124,0,1.629-.928,2.19-2.036.692-1.352,1.3-2.923,1.3-2.923s-.765,4.251,1.327,4.251c.765,0,1.53-.985,1.873-1.49v.008s.016-.033.057-.1c.081-.122.122-.2.122-.2v-.024c.309-.529.985-1.743,2-3.746,1.319-2.589,2.58-5.822,2.58-5.822a16.387,16.387,0,0,0,.5,2.1,19.669,19.669,0,0,0,1.091,2.443c-.309.423-.5.668-.5.668a.025.025,0,0,0,.008.016c-.244.326-.521.676-.806,1.018a28.741,28.741,0,0,0-2.443,3.062.832.832,0,0,0,.228,1.116,1.979,1.979,0,0,0,1.278.2,5.647,5.647,0,0,0,1.914-.44,6.694,6.694,0,0,0,1.644-.863,3.676,3.676,0,0,0,1.58-3.241,6.744,6.744,0,0,0-.594-2.3c.09-.13.187-.269.277-.407a43.286,43.286,0,0,0,2.857-4.936,16.387,16.387,0,0,0,.5,2.1A14.363,14.363,0,0,0,38.083,26a8.951,8.951,0,0,0-2.776,3.591c-.6,1.734-.13,2.516.757,2.7A2.732,2.732,0,0,0,37.457,32a6.47,6.47,0,0,0,1.758-.9,3.935,3.935,0,0,0,1.937-3.225,6.058,6.058,0,0,0-.44-1.905,9.939,9.939,0,0,1,5.056-.586c4.534.529,5.421,3.363,5.25,4.544a3.01,3.01,0,0,1-1.441,2.036c-.318.2-.415.269-.391.415.041.212.187.2.456.155a3.537,3.537,0,0,0,2.466-3.151c.13-2.769-2.532-5.814-7.247-5.79ZM9.917,35.375c-1.5,1.637-3.6,2.256-4.5,1.734-.969-.563-.586-2.972,1.261-4.716a24.127,24.127,0,0,1,3.533-2.638c.22-.13.537-.326.928-.562.065-.041.1-.057.1-.057.073-.049.155-.09.236-.138a6.5,6.5,0,0,1-1.555,6.376Zm10.941-7.442c-.521,1.278-1.62,4.536-2.287,4.365-.57-.147-.92-2.63-.114-5.073a11.231,11.231,0,0,1,1.783-3.265c.822-.92,1.725-1.213,1.937-.847C22.462,23.592,21.183,27.135,20.858,27.933ZM29.9,32.248c-.22.114-.423.187-.521.13-.073-.041.09-.2.09-.2s1.132-1.213,1.58-1.767c.261-.326.562-.708.887-1.132,0,.041.008.081.008.13-.011,1.458-1.41,2.443-2.045,2.834Zm6.969-1.588c-.163-.114-.138-.5.407-1.686a6.329,6.329,0,0,1,1.547-1.995,2.946,2.946,0,0,1,.155.879,2.871,2.871,0,0,1-2.108,2.8Z" transform="translate(0 -1.125)" fill="#303537"/>
</svg>
