<svg xmlns="http://www.w3.org/2000/svg" width="52.113" height="50.81" viewBox="0 0 52.113 50.81">
  <path id="Icon_simple-adobexd" data-name="Icon simple-adobexd" d="M42.885.45H9.228A9.221,9.221,0,0,0,0,9.678V42.032A9.221,9.221,0,0,0,9.228,51.26H42.885a9.221,9.221,0,0,0,9.228-9.228V9.678A9.221,9.221,0,0,0,42.885.45ZM49.92,41.185a7.867,7.867,0,0,1-7.86,7.9H10.053a7.9,7.9,0,0,1-7.882-7.882V10.5a7.9,7.9,0,0,1,7.882-7.882H42.038A7.882,7.882,0,0,1,49.92,10.5ZM20.606,24.227l6.08,11.682c.109.174.043.347-.13.347H22.778a.426.426,0,0,1-.456-.282c-1.39-2.866-2.8-5.732-4.256-8.816h-.043c-1.3,2.91-2.736,5.971-4.126,8.838a.417.417,0,0,1-.391.239H9.923c-.217,0-.239-.174-.13-.3L15.742,24.6,9.988,13.131a.175.175,0,0,1,.13-.3h3.735a.342.342,0,0,1,.391.239c1.368,2.866,2.758,5.819,4.06,8.707h.043c1.259-2.866,2.649-5.841,4-8.686.109-.174.174-.282.391-.282h3.5c.174,0,.239.13.13.3Zm7.144,3.539c0-5.059,3.366-9.011,8.707-9.011a9.629,9.629,0,0,1,1.129.043V13.044a.218.218,0,0,1,.217-.217h3.431c.174,0,.217.065.217.174V32.934a15.466,15.466,0,0,0,.109,2.128c0,.13-.043.174-.174.239a12.934,12.934,0,0,1-5.559,1.259C31.116,36.582,27.75,33.672,27.75,27.766Zm9.836-5.559a3.284,3.284,0,0,0-1.259-.217c-2.736,0-4.647,2.106-4.647,5.6,0,4,1.954,5.6,4.408,5.6a4.1,4.1,0,0,0,1.5-.239V22.207Z" transform="translate(0 -0.45)" fill="#303537"/>
</svg>
